:version 1.10
:name ASF
:units
  mass 1
  length 1
  angle deg
:documentation
  ASF file generated by Kaydara
:root
  axis xyz
  order  tx ty tz rx ry rz
  position 0 0 0
  orientation 0 0 0
:bonedata
  begin
    id 1
    name RightUpLegDummy
    direction -0.65628 -0.754516 0.00165102
    length 4.76918
    axis 0 0 0 xyz
  end
  begin
    id 2
    name RightUpLeg
    direction -0.145584 -0.923362 0.355256
    length 17.9961
    axis -24.7611 -13.1006 1.78531 xyz
    dof rx ry rz
  end
  begin
    id 3
    name RightLeg
    direction 0.263379 0.172355 -0.949171
    length 13.3386
    axis 89.6202 -21.1929 12.3855 xyz
    dof rx ry rz
  end
  begin
    id 4
    name RightFoot
    direction 0.224283 -0.968777 -0.105675
    length 5.86697
    axis 56.995 -39.6905 17.3365 xyz
    dof rx ry rz
  end
  begin
    id 5
    name RightToes
    direction -0.0806345 -0.9037 0.420506
    length 4.75197
    axis 146.825 -39.7828 17.6019 xyz
    dof rx ry rz
  end
  begin
    id 6
    name SpineDummy
    direction -3.39852e-014 1 9.33296e-014
    length 8.13779
    axis 0 0 0 xyz
  end
  begin
    id 7
    name Spine
    direction -0.156609 0.733703 0.661176
    length 7.14978
    axis 41.2365 5.68757 17.0844 xyz
    dof rx ry rz
  end
  begin
    id 8
    name Spine1
    direction 0 0 0
    length 0
    axis 42.8809 47.8308 -3.36039 xyz
    dof rx ry rz
  end
  begin
    id 9
    name HEadDummy
    direction 0.546431 0.701947 0.456819
    length 3.55512
    axis 42.8809 47.8308 -3.36039 xyz
  end
  begin
    id 10
    name HEad
    direction 0.23444 0.828559 0.508457
    length 7.35827
    axis 51.1864 49.2662 27.4903 xyz
    dof rx ry rz
  end
  begin
    id 11
    name LeftShoulder1Dummy
    direction 0.431183 0.475873 -0.766568
    length 2.49352
    axis 42.8809 47.8308 -3.36039 xyz
  end
  begin
    id 12
    name LeftShoulder1
    direction 0.268187 -0.383402 -0.883786
    length 4.48604
    axis -119.517 0.106469 35.1736 xyz
    dof rx ry rz
  end
  begin
    id 13
    name LeftArm
    direction 0.380567 -0.703221 -0.600541
    length 10.1142
    axis -5.41825 36.2925 7.8293 xyz
    dof rx ry rz
  end
  begin
    id 14
    name LeftForeArm
    direction 0.541071 -0.732356 -0.413396
    length 9.39839
    axis 4.65387 33.7604 7.81644 xyz
    dof rx ry rz
  end
  begin
    id 15
    name LeftHand
    direction 0.847511 -0.389379 -0.360707
    length 3.66142
    axis 7.65593 21.1436 -24.6758 xyz
    dof rx ry rz
  end
  begin
    id 16
    name RightShoulderDummy
    direction -0.692546 0.541855 0.476208
    length 2.49352
    axis 42.8809 47.8308 -3.36039 xyz
  end
  begin
    id 17
    name RightShoulder
    direction -0.870808 -0.316653 0.376065
    length 4.48602
    axis 141.571 51.133 -100.254 xyz
    dof rx ry rz
  end
  begin
    id 18
    name RightArm
    direction 0.366897 -0.87275 0.322015
    length 10.1142
    axis 92.3258 71.2036 138.917 xyz
    dof rx ry rz
  end
  begin
    id 19
    name RightForeArm
    direction 0.702487 -0.694568 0.155197
    length 9.39835
    axis 153.863 41.5092 -176.604 xyz
    dof rx ry rz
  end
  begin
    id 20
    name RightHand
    direction 0.79502 -0.601276 0.0800636
    length 3.66142
    axis 154.247 4.59222 142.9 xyz
    dof rx ry rz
  end
  begin
    id 21
    name LeftUpLegDummy
    direction 0.65628 -0.754516 0.00165102
    length 4.76919
    axis 0 0 0 xyz
  end
  begin
    id 22
    name LeftUpLeg
    direction -0.1277 -0.689368 0.713067
    length 17.9961
    axis -48.3385 -17.8675 0.791927 xyz
    dof rx ry rz
  end
  begin
    id 23
    name LeftLeg
    direction 0.109849 -0.991246 -0.0732378
    length 13.3386
    axis -2.05791 -7.30784 1.72042 xyz
    dof rx ry rz
  end
  begin
    id 24
    name LeftFoot
    direction 0.0448355 -0.272614 0.961078
    length 5.86697
    axis -18.7733 -7.89606 10.2113 xyz
    dof rx ry rz
  end
  begin
    id 25
    name LeftToes
    direction -0.18506 0.293668 0.937823
    length 4.75197
    axis 71.2267 -7.89606 10.2113 xyz
    dof rx ry rz
  end
:hierarchy
  begin
    root RightUpLegDummy SpineDummy LeftUpLegDummy
    RightUpLegDummy RightUpLeg
    RightUpLeg RightLeg
    RightLeg RightFoot
    RightFoot RightToes
    SpineDummy Spine
    Spine Spine1
    Spine1 HEadDummy LeftShoulder1Dummy RightShoulderDummy
    HEadDummy HEad
    LeftShoulder1Dummy LeftShoulder1
    LeftShoulder1 LeftArm
    LeftArm LeftForeArm
    LeftForeArm LeftHand
    RightShoulderDummy RightShoulder
    RightShoulder RightArm
    RightArm RightForeArm
    RightForeArm RightHand
    LeftUpLegDummy LeftUpLeg
    LeftUpLeg LeftLeg
    LeftLeg LeftFoot
    LeftFoot LeftToes
  end

:SAMPLES-PER-SECOND 30
:FULLY-SPECIFIED
:DEGREES
22
root  -4.31107 38.1409 10.4924 179.665 -20.1521 177.012
RightUpLeg  1.07755 -1.33318 -0.299837
RightLeg  -61.3873 -23.176 10.6174
RightFoot  24.851 3.89464 -15.285
RightToes  -1.27222e-014 -6.36111e-015 6.36111e-015
Spine  -32.5151 -15.3175 -14.7925
Spine1  0.905029 -10.3288 36.9473
HEad  3.89057 -38.3183 -12.409
LeftShoulder1  6.36111e-015 -1.33558e-015 6.49777e-015
LeftArm  40.9974 0.605337 -47.4879
LeftForeArm  -0.567068 -22.2047 -2.4823
LeftHand  -1.1873 -0.619387 -12.4928
RightShoulder  -4.77083e-015 -6.36111e-015 -3.18055e-015
RightArm  48.8816 -35.8196 -12.7044
RightForeArm  -13.0513 -7.99192 -8.40533
RightHand  1.20973 -1.10587 -7.21176
LeftUpLeg  36.5158 25.8993 15.7905
LeftLeg  -2.02963 -3.44574 -0.684479
LeftFoot  -6.08592 1.32965 -5.40698
LeftToes  9.54166e-015 -1.91609e-011 -2.3878e-011
23
root  -4.44212 38.3773 10.0856 179.35 -20.4726 177.262
RightUpLeg  0.663889 -0.0697721 0.579742
RightLeg  -61.2097 -22.1739 9.33548
RightFoot  23.6272 3.74542 -14.8568
RightToes  -1.27222e-014 -6.36111e-015 6.36111e-015
Spine  -32.8528 -15.7122 -14.8552
Spine1  0.482973 -10.6726 37.5856
HEad  4.3405 -38.8539 -12.1075
LeftShoulder1  6.36111e-015 -1.33558e-015 6.49777e-015
LeftArm  42.1481 0.265288 -48.0971
LeftForeArm  -1.59227 -22.18 -1.67508
LeftHand  -1.1851 -0.629616 -12.4248
RightShoulder  -4.77083e-015 -6.36111e-015 -3.18055e-015
RightArm  50.0896 -37.175 -14.0707
RightForeArm  -13.106 -8.46879 -8.23756
RightHand  1.30725 -1.30492 -7.56043
LeftUpLeg  38.0261 25.484 16.2028
LeftLeg  -3.26381 -3.8088 -0.790721
LeftFoot  -4.8042 1.51923 -5.92509
LeftToes  9.54166e-015 -1.91609e-011 -2.3878e-011
24
root  -4.55717 38.6712 9.66268 179.274 -20.802 177.572
RightUpLeg  0.124667 0.967563 1.60087
RightLeg  -63.0649 -20.7654 8.34915
RightFoot  23.3281 3.59312 -14.5821
RightToes  -1.27222e-014 -6.36111e-015 6.36111e-015
Spine  -33.4537 -16.0851 -14.7424
Spine1  -0.127099 -11.0332 38.2506
HEad  4.88011 -39.227 -11.9651
LeftShoulder1  6.36111e-015 -1.33558e-015 6.49777e-015
LeftArm  42.5037 0.0676195 -48.2209
LeftForeArm  -2.17072 -22.371 -1.2237
LeftHand  -1.16942 -0.594997 -12.3393
RightShoulder  -4.77083e-015 -6.36111e-015 -3.18055e-015
RightArm  51.4686 -38.5073 -14.9313
RightForeArm  -12.8097 -8.99209 -7.971
RightHand  1.23696 -1.11182 -7.39307
LeftUpLeg  39.5368 25.1995 17.0133
LeftLeg  -4.95469 -4.70204 -0.929913
LeftFoot  -2.99132 1.73426 -6.37823
LeftToes  9.54166e-015 -1.91609e-011 -2.3878e-011
25
root  -4.65432 38.9845 9.24088 179.364 -21.0873 177.866
RightUpLeg  -0.531859 1.83957 2.61604
RightLeg  -66.8462 -19.4577 8.1238
RightFoot  23.9264 3.43026 -14.46
RightToes  -1.27222e-014 -6.36111e-015 6.36111e-015
Spine  -34.0336 -16.4306 -14.483
Spine1  -1.03166 -11.4112 38.8272
HEad  5.35985 -39.2753 -11.9364
LeftShoulder1  6.36111e-015 -1.33558e-015 6.49777e-015
LeftArm  42.2938 -0.157768 -48.1124
LeftForeArm  -2.54696 -22.4 -1.0336
LeftHand  -1.17029 -0.691876 -11.9883
RightShoulder  -4.77083e-015 -6.36111e-015 -3.18055e-015
RightArm  52.8928 -39.7259 -15.2194
RightForeArm  -12.3711 -9.77466 -7.58365
RightHand  1.0566 -0.692829 -6.81422
LeftUpLeg  41.0868 25.132 18.2024
LeftLeg  -6.94339 -5.94669 -1.03
LeftFoot  -0.838725 1.93048 -6.63769
LeftToes  9.54166e-015 -1.91609e-011 -2.3878e-011
26
root  -4.74359 39.2857 8.82973 179.547 -21.3662 178.032
RightUpLeg  -1.20056 2.42047 3.32302
RightLeg  -71.9342 -18.0742 8.19741
RightFoot  24.1577 3.0778 -14.0021
RightToes  -1.27222e-014 -6.36111e-015 6.36111e-015
Spine  -34.5654 -16.7516 -14.04
Spine1  -2.04456 -11.8186 39.4279
HEad  5.6139 -39.1446 -11.89
LeftShoulder1  6.36111e-015 -1.33558e-015 6.49777e-015
LeftArm  41.8023 -0.559548 -48.0268
LeftForeArm  -3.04115 -22.1777 -0.917485
LeftHand  -1.17949 -0.864796 -11.4481
RightShoulder  -4.77083e-015 -6.36111e-015 -3.18055e-015
RightArm  54.1945 -40.7099 -14.9387
RightForeArm  -12.0563 -10.9454 -7.09085
RightHand  0.905882 -0.425773 -6.16444
LeftUpLeg  42.6991 25.1091 19.1775
LeftLeg  -9.37027 -6.98801 -1.06301
LeftFoot  1.0685 2.11963 -6.8849
LeftToes  9.54166e-015 -1.91609e-011 -2.3878e-011
27
root  -4.83717 39.5186 8.4188 179.91 -21.5749 177.88
RightUpLeg  -1.91821 2.72289 3.51271
RightLeg  -77.527 -16.3209 7.54812
RightFoot  24.2318 2.88461 -13.7426
RightToes  -1.27222e-014 -6.36111e-015 6.36111e-015
Spine  -35.2705 -17.2032 -13.6646
Spine1  -2.73531 -12.2546 40.1167
HEad  5.61967 -38.8734 -11.8785
LeftShoulder1  6.36111e-015 -1.33558e-015 6.49777e-015
LeftArm  41.1442 -1.22198 -48.058
LeftForeArm  -3.69173 -22.1565 -0.790951
LeftHand  -1.18019 -0.989742 -10.9585
RightShoulder  -4.77083e-015 -6.36111e-015 -3.18055e-015
RightArm  55.4732 -41.5166 -15.4041
RightForeArm  -11.5328 -11.55 -6.29609
RightHand  0.81831 -0.373 -5.60475
LeftUpLeg  44.4213 25.2718 19.6864
LeftLeg  -12.3042 -7.6885 -1.04682
LeftFoot  2.32598 2.24656 -7.03731
LeftToes  9.54166e-015 -1.91609e-011 -2.3878e-011
28
root  -4.93773 39.6292 7.98584 -179.52 -21.4841 177.316
RightUpLeg  -2.67748 3.45081 3.33983
RightLeg  -83.0643 -14.4753 5.8882
RightFoot  25.1871 3.2185 -14.3977
RightToes  -1.27222e-014 -6.36111e-015 6.36111e-015
Spine  -36.1325 -17.8825 -13.6797
Spine1  -3.01437 -12.6588 40.7159
HEad  5.46321 -38.2523 -12.0097
LeftShoulder1  6.36111e-015 -1.33558e-015 6.49777e-015
LeftArm  40.4188 -2.23515 -48.336
LeftForeArm  -4.4672 -22.5661 -0.598318
LeftHand  -1.17202 -1.06003 -10.5534
RightShoulder  -4.77083e-015 -6.36111e-015 -3.18055e-015
RightArm  56.9821 -42.2113 -17.2629
RightForeArm  -10.6693 -11.2602 -5.32316
RightHand  0.729898 -0.298229 -5.06946
LeftUpLeg  46.5576 26.0826 20.4464
LeftLeg  -15.5145 -8.6665 -0.919915
LeftFoot  3.0045 2.18489 -6.71366
LeftToes  9.54166e-015 -1.91609e-011 -2.3878e-011
29
root  -5.04032 39.6054 7.52771 -178.963 -21.0033 176.506
RightUpLeg  -3.30484 5.45022 3.11114
RightLeg  -88.4609 -13.0516 4.3232
RightFoot  26.3315 3.77974 -15.3773
RightToes  -1.27222e-014 -6.36111e-015 6.36111e-015
Spine  -36.8276 -18.5759 -13.9532
Spine1  -3.20121 -12.9461 41.16
HEad  5.15805 -37.1878 -12.2284
LeftShoulder1  6.36111e-015 -1.33558e-015 6.49777e-015
LeftArm  39.672 -3.63999 -48.9047
LeftForeArm  -5.39208 -23.2257 -0.331991
LeftHand  -1.13553 -1.0684 -9.99559
RightShoulder  -4.77083e-015 -6.36111e-015 -3.18055e-015
RightArm  58.8184 -42.7697 -19.8563
RightForeArm  -9.9529 -10.7924 -4.57676
RightHand  0.617106 -0.121277 -4.50838
LeftUpLeg  48.8672 26.4658 20.6068
LeftLeg  -18.6149 -9.0791 -1.72749
LeftFoot  2.91956 2.02587 -6.23901
LeftToes  9.54166e-015 -1.91609e-011 -2.3878e-011
30
root  -5.13639 39.4619 7.05971 -178.611 -20.4943 175.702
RightUpLeg  -3.72898 8.21724 2.87114
RightLeg  -93.6398 -12.0853 3.91645
RightFoot  26.3045 4.34619 -16.15
RightToes  -1.27222e-014 -6.36111e-015 6.36111e-015
Spine  -37.1875 -19.0792 -14.0827
Spine1  -3.49825 -13.171 41.7652
HEad  4.67038 -35.9161 -12.5039
LeftShoulder1  6.36111e-015 -1.33558e-015 6.49777e-015
LeftArm  38.936 -5.5103 -49.7988
LeftForeArm  -6.45208 -24.0207 -0.00258772
LeftHand  -1.02465 -0.899016 -9.14333
RightShoulder  -4.77083e-015 -6.36111e-015 -3.18055e-015
RightArm  60.8895 -43.1519 -22.2062
RightForeArm  -10.0133 -10.9586 -4.44476
RightHand  0.549749 -0.0607792 -4.09385
LeftUpLeg  50.6556 25.5864 18.9855
LeftLeg  -21.2021 -7.99609 -3.83615
LeftFoot  1.6778 1.9886 -6.34368
LeftToes  9.54166e-015 -1.91609e-011 -2.3878e-011
31
root  -5.21625 39.2345 6.57581 -178.444 -20.4657 175.037
RightUpLeg  -4.08583 9.99332 2.53933
RightLeg  -97.8019 -11.3757 4.42951
RightFoot  26.0276 5.46385 -17.6537
RightToes  -1.27222e-014 -6.36111e-015 6.36111e-015
Spine  -37.2886 -19.5034 -13.915
Spine1  -3.88971 -13.5232 42.8296
HEad  4.07513 -34.7551 -12.9798
LeftShoulder1  6.36111e-015 -1.33558e-015 6.49777e-015
LeftArm  38.346 -8.00286 -51.1912
LeftForeArm  -7.43968 -25.2531 0.429773
LeftHand  -0.837522 -0.489691 -8.30661
RightShoulder  -4.77083e-015 -6.36111e-015 -3.18055e-015
RightArm  63.1174 -43.4505 -23.8607
RightForeArm  -10.9596 -11.8315 -5.03098
RightHand  0.628883 -0.358031 -4.21914
LeftUpLeg  52.3541 25.4085 18.488
LeftLeg  -22.593 -7.89834 -4.57305
LeftFoot  -0.183624 1.94286 -6.54782
LeftToes  9.54166e-015 -1.91609e-011 -2.3878e-011
32
root  -5.27769 38.9953 6.0366 -178.575 -20.8246 174.593
RightUpLeg  -4.31638 10.2782 2.31963
RightLeg  -99.5432 -10.9799 5.55348
RightFoot  27.3635 7.31566 -20.3363
RightToes  -1.27222e-014 -6.36111e-015 6.36111e-015
Spine  -37.0889 -19.8046 -13.4389
Spine1  -4.34396 -14.0183 44.0368
HEad  3.44829 -33.8115 -13.6397
LeftShoulder1  6.36111e-015 -1.33558e-015 6.49777e-015
LeftArm  38.0818 -11.136 -53.2152
LeftForeArm  -8.02918 -27.32 1.03037
LeftHand  -0.662945 -0.0149097 -7.96624
RightShoulder  -4.77083e-015 -6.36111e-015 -3.18055e-015
RightArm  65.4923 -43.8776 -25.1022
RightForeArm  -12.1801 -12.5902 -5.96114
RightHand  0.931272 -1.09317 -5.26688
LeftUpLeg  54.1531 26.2977 20.1239
LeftLeg  -22.1762 -9.28284 -3.20517
LeftFoot  -1.57727 1.80339 -6.34082
LeftToes  9.54166e-015 -1.91609e-011 -2.3878e-011
33
root  -5.32915 38.8044 5.39329 -179.313 -20.7843 174.335
RightUpLeg  -3.97147 10.4169 2.52166
RightLeg  -98.4126 -11.3375 7.05357
RightFoot  29.7421 8.81478 -22.4782
RightToes  -1.27222e-014 -6.36111e-015 6.36111e-015
Spine  -36.5697 -19.6563 -12.6317
Spine1  -4.50875 -14.4272 44.5803
HEad  2.72612 -32.956 -14.1788
LeftShoulder1  6.36111e-015 -1.33558e-015 6.49777e-015
LeftArm  38.17 -14.5891 -55.6833
LeftForeArm  -8.07576 -30.115 1.77824
LeftHand  -0.606792 0.18852 -8.05737
RightShoulder  -4.77083e-015 -6.36111e-015 -3.18055e-015
RightArm  67.7549 -44.561 -26.1631
RightForeArm  -13.0055 -12.589 -6.64971
RightHand  1.45173 -2.17118 -7.14187
LeftUpLeg  56.2417 27.5833 23.3254
LeftLeg  -19.8305 -11.2555 -0.794773
LeftFoot  -2.3373 1.95269 -7.04104
LeftToes  9.54166e-015 -1.91609e-011 -2.3878e-011
